<?xml version="1.0" encoding="UTF-8"?>
<svg id="Layer_1" xmlns="http://www.w3.org/2000/svg" version="1.1" viewBox="0 0 500 500">
  <!-- Generator: Adobe Illustrator 29.0.1, SVG Export Plug-In . SVG Version: 2.1.0 Build 192)  -->
  <defs>
    <style>
      .st0, .st1 {
        fill: none;
      }

      .st2 {
        fill: #fccd26;
      }

      .st3 {
        fill: #2d2816;
      }

      .st1 {
        stroke: #2d2816;
      }
    </style>
  </defs>
  <path class="st2" d="M394.2,770.7c0,6.8-.4,13.5-1.3,20,.8,6.5,1.3,13.2,1.3,20,0,80.8-61.1,140-144.2,140s-144.2-59.2-144.2-140,.4-13.5,1.3-20c-.8-6.5-1.3-13.2-1.3-20s.4-12.2,1-18.1c-1-7.1-1.5-14.4-1.5-21.9,0-81,61.4-140.5,144.7-140.5s144.7,59.4,144.7,140.5-.5,14.8-1.5,21.9c.7,5.9,1,11.9,1,18.1Z"/>
  <g>
    <path class="st1" d="M392.9,790.7c-.8-6.5-2.1-12.9-3.8-19.1-16.3-60.1-70.1-100.9-139.1-100.9s-122.8,40.8-139.1,100.9c-1.7,6.2-3,12.5-3.8,19.1-.8,6.5-1.3,13.2-1.3,20,0,80.8,61.1,140,144.2,140s144.2-59.2,144.2-140-.4-13.5-1.3-20ZM195,790.7c2.4-7.7,6.1-14.6,11-20.4,10.4-12.4,25.9-19.9,44-19.9s33.6,7.5,44,19.9c4.9,5.8,8.6,12.7,11,20.4,1.9,6.2,3,12.9,3,20,0,34.6-24.5,60.3-58,60.3s-58-25.7-58-60.3,1-13.8,3-20Z"/>
    <path class="st1" d="M393.2,752.6c-8.4-71.4-66.4-121.9-143.2-121.9s-134.8,50.5-143.2,121.9c-.7,5.9-1,11.9-1,18.1s.4,13.5,1.3,20c9.2,70.4,66.9,120,142.9,120s133.7-49.6,142.9-120c.8-6.5,1.3-13.2,1.3-20s-.4-12.2-1-18.1ZM305,790.7c-7.5,24.1-28.4,40.3-55,40.3s-47.6-16.2-55-40.3c-1.9-6.2-3-12.9-3-20s1.1-14.4,3.2-20.8c7.7-23.6,28.5-39.5,54.8-39.5s47.1,15.9,54.8,39.5c2.1,6.4,3.2,13.4,3.2,20.8s-1,13.8-3,20Z"/>
    <path class="st3" d="M250,590.2c-83.4,0-144.7,59.4-144.7,140.5s.5,14.8,1.5,21.9c.9,6.5,2.3,12.9,4,19,16.9,59.4,70.6,99.6,139.1,99.6s122.2-40.2,139.1-99.6c1.8-6.1,3.1-12.5,4-19,1-7.1,1.5-14.4,1.5-21.9,0-81-61.4-140.5-144.7-140.5ZM304.8,749.8c-2.3,7.7-6,14.6-10.8,20.5-10.3,12.6-25.8,20.2-44,20.2s-33.7-7.6-44-20.2c-4.8-5.8-8.5-12.8-10.8-20.5-1.8-6-2.7-12.4-2.7-19.2,0-34.3,24.3-59.8,57.5-59.8s57.5,25.5,57.5,59.8-1,13.2-2.7,19.2Z"/>
  </g>
  <path class="st2" d="M406.5,103.9v270.2h-.5v79.5h-83.9v-79.5h-.5v-97l-.3.2c-20.6,12.7-32.4,35.4-34.9,66.1v30.7h-.5v79.5h-71.9v-79.5h-.5v-30.3c-2.5-30.6-14.5-53.7-34.9-66.1l-.3-.2v96.6h-.5v79.5h-83.9v-79.5h-.5V103.9h32c41.2,0,75,11.5,101.7,34.5.8-1.2,1.8-2.2,2.8-3.2-5.1-5.1-8.3-12.2-8.3-20s3-14.6,8-19.6c-5.2-5.2-8.5-12.4-8.5-20.4,0-15.9,12.9-28.8,28.7-28.8s28.8,12.9,28.8,28.8-3.2,15.2-8.5,20.4c4.9,5.1,8,12,8,19.6s-3.2,14.9-8.3,20c1.1,1.1,2.1,2.2,3,3.5,26.7-23,60.6-34.7,101.6-34.7h32Z"/>
  <rect class="st0" width="500" height="500"/>
  <g>
    <path class="st1" d="M406,184.4v269.2h-83.9v-176.8l-.5.3-.3.2c-20.6,12.7-32.4,35.4-34.9,66.1-.3,4.1-.5,8.3-.5,12.6v97.5h-71.9v-97.5c0-4.2-.2-8.3-.5-12.3-2.5-30.6-14.5-53.7-34.9-66.1l-.3-.2-.5-.3v176.4h-83.9V184.4h31.5c53.9,0,95,19.6,124.2,59.2l.4.5.4-.5c28.8-39.2,70.4-59.2,123.9-59.2h31.5Z"/>
    <path class="st1" d="M278.2,155.2c0,15.6-12.6,28.2-28.2,28.2s-28.2-12.6-28.2-28.2,2-12.1,5.5-16.8c.8-1.2,1.8-2.2,2.8-3.2,5.1-5.1,12.2-8.2,19.9-8.2s14.8,3.1,19.9,8.2c1.1,1.1,2.1,2.2,3,3.5,3.4,4.7,5.3,10.4,5.3,16.5Z"/>
    <path class="st1" d="M406,144.4v269.2h-83.9v-176.8l-.5.3-.3.2c-20.6,12.7-32.4,35.4-34.9,66.1-.3,4.1-.5,8.3-.5,12.6v97.5h-71.9v-97.5c0-4.2-.2-8.3-.5-12.3-2.5-30.6-14.5-53.7-34.9-66.1l-.3-.2-.5-.3v176.4h-83.9V144.4h31.5c53.9,0,95,19.6,124.2,59.2l.4.5.4-.5c28.8-39.2,70.4-59.2,123.9-59.2h31.5Z"/>
    <path class="st1" d="M278.2,115.2c0,7.8-3.2,14.9-8.3,20-5.1,5.1-12.1,8.2-19.9,8.2s-14.8-3.2-19.9-8.2c-5.1-5.1-8.3-12.2-8.3-20s3-14.6,8-19.6c5.1-5.3,12.3-8.6,20.3-8.6s15.2,3.3,20.3,8.6c4.9,5.1,8,12,8,19.6Z"/>
    <path class="st3" d="M406.5,103.9v270.2h-84.9v-176.4c-23.2,14.3-35.1,41.3-35.1,78.3v98h-72.9v-98c0-36.7-12.4-64.1-35.1-78v176h-84.9V103.9h32c41.2,0,75,11.5,101.7,34.5,8.3,7.2,16,15.5,22.9,24.9,6.8-9.3,14.4-17.6,22.7-24.7,26.7-23,60.6-34.7,101.6-34.7h32Z"/>
    <path class="st3" d="M278.7,75.2c0,7.9-3.2,15.2-8.5,20.4-5.2,5.2-12.4,8.4-20.3,8.4s-15.1-3.2-20.3-8.4c-5.2-5.2-8.5-12.4-8.5-20.4,0-15.9,12.9-28.8,28.7-28.8s28.8,12.9,28.8,28.8Z"/>
  </g>
</svg>