<svg width="290" height="361" viewBox="0 0 290 361" fill="none" xmlns="http://www.w3.org/2000/svg">
<path d="M144.726 360.462C61.6256 360.462 0.5 301.237 0.5 220.481C0.5 139.725 61.6256 80.5 144.726 80.5C227.827 80.5 288.953 139.725 288.953 220.481C288.953 301.237 227.827 360.462 144.726 360.462ZM86.7217 220.481C86.7217 255.086 111.24 280.801 144.726 280.801C178.212 280.801 202.731 255.086 202.731 220.481C202.731 185.876 178.212 160.161 144.726 160.161C111.24 160.161 86.7217 185.876 86.7217 220.481Z" stroke="#2D2816"/>
<path d="M144.726 320.462C61.6256 320.462 0.5 261.237 0.5 180.481C0.5 99.7247 61.6256 40.5 144.726 40.5C227.827 40.5 288.953 99.7247 288.953 180.481C288.953 261.237 227.827 320.462 144.726 320.462ZM86.7217 180.481C86.7217 215.086 111.24 240.801 144.726 240.801C178.212 240.801 202.731 215.086 202.731 180.481C202.731 145.876 178.212 120.161 144.726 120.161C111.24 120.161 86.7217 145.876 86.7217 180.481Z" stroke="#2D2816"/>
<path d="M144.726 280.962C61.364 280.962 0 221.528 0 140.481C0 59.4343 61.364 0 144.726 0C228.089 0 289.453 59.4343 289.453 140.481C289.453 221.528 228.089 280.962 144.726 280.962ZM87.2217 140.481C87.2217 174.829 111.536 200.301 144.726 200.301C177.917 200.301 202.231 174.829 202.231 140.481C202.231 106.133 177.917 80.6608 144.726 80.6608C111.536 80.6608 87.2217 106.133 87.2217 140.481Z" fill="#2D2816"/>
</svg>
